# xmcd
#
# Track frame offsets:
#	150
#	10505
#	20622
#	32745
#	44322
#	55520
#	66457
#	75807
#	88065
#	97497
#	109670
#	121522
#	133987
#	144300
#	154402
#	163642
#	174937
#	185652
#	197450
#	207630
#	217740
#	230570
#	241230
#
# Disc length: 3345 seconds
# Revision: 0
# Processed by: cddbd v1.5.2PL0 Copyright (c) Steve Scherf et al.
# Submitted via: dBpowerAMP V12.0
#
DISCID=340d0f17
DTITLE=Loretta Lynn - Honky Tonk Girl [The Loretta Lynn Collection]
DYEAR=1994
DGENRE=Country
TTITLE0=I'm A Honky Tonk Girl
TTITLE1=Whispering Sea
TTITLE2=Success
TTITLE3=Before I'm Over You
TTITLE4=The Other Woman
TTITLE5=This Haunted House
TTITLE6=Wine, Women And Song
TTITLE7=Mr. And Mrs. Used To Be (With Ernest Tubb)
TTITLE8=Happy Birthday
TTITLE9=Blue Kentucky Girl
TTITLE10=Our Hearts Are Holding Hands (With Ernest Tubb)
TTITLE11=The Home You're Tearin' Down
TTITLE12=Dear Uncle Sam
TTITLE13=You Ain't Woman Enough
TTITLE14=A Man I Hardly Know
TTITLE15=Talking To The Wall
TTITLE16=These Boots Are Made For Walking
TTITLE17=The Darkest Day
TTITLE18=The Devil Gets His Due
TTITLE19=The Shoe Goes On The Other Foot Tonight
TTITLE20=Tomorrow Never Comes
TTITLE21=If Loneliness Can Kill Me
TTITLE22=Don't Come Home A'Drinkin' (With Lovin' On Your Mind)
EXTD=
EXTT0=
EXTT1=
EXTT2=
EXTT3=
EXTT4=
EXTT5=
EXTT6=
EXTT7=
EXTT8=
EXTT9=
EXTT10=
EXTT11=
EXTT12=
EXTT13=
EXTT14=
EXTT15=
EXTT16=
EXTT17=
EXTT18=
EXTT19=
EXTT20=
EXTT21=
EXTT22=
PLAYORDER=
